name rise37.2698peak67.6939fall79.5734.mot
datacolumns 19
datarows 27
range 17.84492900000000 17.88827100000000
endheader
time	ground_force1_vx	ground_force1_vy	ground_force1_vz	ground_force1_px	ground_force1_py	ground_force1_pz	ground_force2_vx	ground_force2_vy	ground_force2_vz	ground_force2_px	ground_force2_py	ground_force2_pz	ground_torque1_x	ground_torque1_y	ground_torque1_z	ground_torque2_x	ground_torque2_y	ground_torque2_z	
17.84492900000000	8.68250300000000	700.94468099999995	43.33459000000000	0.24289100000000	0.00000000000000	0.11737800000000	0.00000000000000	0.00000000000000	0.00000000000000	0.00000000000000	0.00000000000000	0.00000000000000	0.00000000000000	19.45021500000000	0.00000000000000	0.00000000000000	0.00000000000000	0.00000000000000	
17.84660000000000	8.24873400000000	702.05492200000003	43.32988400000000	0.24203900000000	0.00000000000000	0.11733500000000	0.00000000000000	0.00000000000000	0.00000000000000	0.00000000000000	0.00000000000000	0.00000000000000	0.00000000000000	19.52775100000000	0.00000000000000	0.00000000000000	0.00000000000000	0.00000000000000	
17.84827000000000	7.80720300000000	703.20965400000000	43.32739600000000	0.24116500000000	0.00000000000000	0.11729300000000	0.00000000000000	0.00000000000000	0.00000000000000	0.00000000000000	0.00000000000000	0.00000000000000	0.00000000000000	19.60734100000000	0.00000000000000	0.00000000000000	0.00000000000000	0.00000000000000	
17.84993100000000	7.35782000000000	704.40759900000000	43.32696700000000	0.24027000000000	0.00000000000000	0.11725100000000	0.00000000000000	0.00000000000000	0.00000000000000	0.00000000000000	0.00000000000000	0.00000000000000	0.00000000000000	19.68889000000000	0.00000000000000	0.00000000000000	0.00000000000000	0.00000000000000	
17.85162300000000	6.90053000000000	705.64748699999996	43.32844500000000	0.23935300000000	0.00000000000000	0.11721000000000	0.00000000000000	0.00000000000000	0.00000000000000	0.00000000000000	0.00000000000000	0.00000000000000	0.00000000000000	19.77230400000000	0.00000000000000	0.00000000000000	0.00000000000000	0.00000000000000	
17.85326600000000	6.43531100000000	706.92806199999995	43.33168600000000	0.23841600000000	0.00000000000000	0.11716900000000	0.00000000000000	0.00000000000000	0.00000000000000	0.00000000000000	0.00000000000000	0.00000000000000	0.00000000000000	19.85749400000000	0.00000000000000	0.00000000000000	0.00000000000000	0.00000000000000	
17.85493100000000	5.96217800000000	708.24807999999996	43.33655500000000	0.23745800000000	0.00000000000000	0.11712900000000	0.00000000000000	0.00000000000000	0.00000000000000	0.00000000000000	0.00000000000000	0.00000000000000	0.00000000000000	19.94437300000000	0.00000000000000	0.00000000000000	0.00000000000000	0.00000000000000	
17.85662100000000	5.48118100000000	709.60631300000000	43.34292600000000	0.23648000000000	0.00000000000000	0.11708900000000	0.00000000000000	0.00000000000000	0.00000000000000	0.00000000000000	0.00000000000000	0.00000000000000	0.00000000000000	20.03285500000000	0.00000000000000	0.00000000000000	0.00000000000000	0.00000000000000	
17.85828900000000	4.99240400000000	711.00154699999996	43.35068100000000	0.23548400000000	0.00000000000000	0.11705000000000	0.00000000000000	0.00000000000000	0.00000000000000	0.00000000000000	0.00000000000000	0.00000000000000	0.00000000000000	20.12285600000000	0.00000000000000	0.00000000000000	0.00000000000000	0.00000000000000	
17.85993100000000	4.49596700000000	712.43258100000003	43.35971500000000	0.23446900000000	0.00000000000000	0.11701000000000	0.00000000000000	0.00000000000000	0.00000000000000	0.00000000000000	0.00000000000000	0.00000000000000	0.00000000000000	20.21429500000000	0.00000000000000	0.00000000000000	0.00000000000000	0.00000000000000	
17.86159900000000	3.99202400000000	713.89823300000000	43.36993000000000	0.23343700000000	0.00000000000000	0.11697100000000	0.00000000000000	0.00000000000000	0.00000000000000	0.00000000000000	0.00000000000000	0.00000000000000	0.00000000000000	20.30709000000000	0.00000000000000	0.00000000000000	0.00000000000000	0.00000000000000	
17.86326300000000	3.48076100000000	715.39733200000001	43.38124000000000	0.23239000000000	0.00000000000000	0.11693300000000	0.00000000000000	0.00000000000000	0.00000000000000	0.00000000000000	0.00000000000000	0.00000000000000	0.00000000000000	20.40116200000000	0.00000000000000	0.00000000000000	0.00000000000000	0.00000000000000	
17.86493600000000	2.96240200000000	716.92872399999999	43.39357000000000	0.23132700000000	0.00000000000000	0.11689400000000	0.00000000000000	0.00000000000000	0.00000000000000	0.00000000000000	0.00000000000000	0.00000000000000	0.00000000000000	20.49643200000000	0.00000000000000	0.00000000000000	0.00000000000000	0.00000000000000	
17.86660600000000	2.43719800000000	718.49126699999999	43.40685600000000	0.23025100000000	0.00000000000000	0.11685600000000	0.00000000000000	0.00000000000000	0.00000000000000	0.00000000000000	0.00000000000000	0.00000000000000	0.00000000000000	20.59282300000000	0.00000000000000	0.00000000000000	0.00000000000000	0.00000000000000	
17.86826500000000	1.90543400000000	720.08383400000002	43.42104400000000	0.22916300000000	0.00000000000000	0.11681800000000	0.00000000000000	0.00000000000000	0.00000000000000	0.00000000000000	0.00000000000000	0.00000000000000	0.00000000000000	20.69025600000000	0.00000000000000	0.00000000000000	0.00000000000000	0.00000000000000	
17.86993200000000	1.36742600000000	721.70530699999995	43.43609200000000	0.22806300000000	0.00000000000000	0.11677900000000	0.00000000000000	0.00000000000000	0.00000000000000	0.00000000000000	0.00000000000000	0.00000000000000	0.00000000000000	20.78865400000000	0.00000000000000	0.00000000000000	0.00000000000000	0.00000000000000	
17.87159700000000	0.82351800000000	723.35458200000005	43.45197200000000	0.22695400000000	0.00000000000000	0.11674100000000	0.00000000000000	0.00000000000000	0.00000000000000	0.00000000000000	0.00000000000000	0.00000000000000	0.00000000000000	20.88793800000000	0.00000000000000	0.00000000000000	0.00000000000000	0.00000000000000	
17.87326400000000	0.27408100000000	725.03056100000003	43.46866700000000	0.22583700000000	0.00000000000000	0.11670300000000	0.00000000000000	0.00000000000000	0.00000000000000	0.00000000000000	0.00000000000000	0.00000000000000	0.00000000000000	20.98803000000000	0.00000000000000	0.00000000000000	0.00000000000000	0.00000000000000	
17.87493600000000	-0.28048700000000	726.73215400000004	43.48617000000000	0.22471400000000	0.00000000000000	0.11666400000000	0.00000000000000	0.00000000000000	0.00000000000000	0.00000000000000	0.00000000000000	0.00000000000000	0.00000000000000	21.08885100000000	0.00000000000000	0.00000000000000	0.00000000000000	0.00000000000000	
17.87660400000000	-0.83976200000000	728.45827599999996	43.50449000000000	0.22358500000000	0.00000000000000	0.11662600000000	0.00000000000000	0.00000000000000	0.00000000000000	0.00000000000000	0.00000000000000	0.00000000000000	0.00000000000000	21.19031900000000	0.00000000000000	0.00000000000000	0.00000000000000	0.00000000000000	
17.87826800000000	-1.40329900000000	730.20784700000002	43.52364600000000	0.22245300000000	0.00000000000000	0.11658700000000	0.00000000000000	0.00000000000000	0.00000000000000	0.00000000000000	0.00000000000000	0.00000000000000	0.00000000000000	21.29235200000000	0.00000000000000	0.00000000000000	0.00000000000000	0.00000000000000	
17.87993500000000	-1.97063100000000	731.97978699999999	43.54367100000000	0.22131800000000	0.00000000000000	0.11654800000000	0.00000000000000	0.00000000000000	0.00000000000000	0.00000000000000	0.00000000000000	0.00000000000000	0.00000000000000	21.39486900000000	0.00000000000000	0.00000000000000	0.00000000000000	0.00000000000000	
17.88159900000000	-2.54127100000000	733.77301399999999	43.56461100000000	0.22018300000000	0.00000000000000	0.11650800000000	0.00000000000000	0.00000000000000	0.00000000000000	0.00000000000000	0.00000000000000	0.00000000000000	0.00000000000000	21.49778400000000	0.00000000000000	0.00000000000000	0.00000000000000	0.00000000000000	
17.88326700000000	-3.11471400000000	735.58644500000003	43.58652400000000	0.21904900000000	0.00000000000000	0.11646900000000	0.00000000000000	0.00000000000000	0.00000000000000	0.00000000000000	0.00000000000000	0.00000000000000	0.00000000000000	21.60100900000000	0.00000000000000	0.00000000000000	0.00000000000000	0.00000000000000	
17.88493700000000	-3.69044100000000	737.41898800000001	43.60948200000000	0.21791700000000	0.00000000000000	0.11642900000000	0.00000000000000	0.00000000000000	0.00000000000000	0.00000000000000	0.00000000000000	0.00000000000000	0.00000000000000	21.70445800000000	0.00000000000000	0.00000000000000	0.00000000000000	0.00000000000000	
17.88660000000000	-4.26791900000000	739.26954400000000	43.63356700000000	0.21678800000000	0.00000000000000	0.11638800000000	0.00000000000000	0.00000000000000	0.00000000000000	0.00000000000000	0.00000000000000	0.00000000000000	0.00000000000000	21.80803800000000	0.00000000000000	0.00000000000000	0.00000000000000	0.00000000000000	
17.88827100000000	-4.84660100000000	741.13700500000004	43.65887700000000	0.21566500000000	0.00000000000000	0.11634700000000	0.00000000000000	0.00000000000000	0.00000000000000	0.00000000000000	0.00000000000000	0.00000000000000	0.00000000000000	21.91165800000000	0.00000000000000	0.00000000000000	0.00000000000000	0.00000000000000	
